<svg width="72" height="20" viewBox="0 0 72 20" fill="none" xmlns="http://www.w3.org/2000/svg">
<rect width="72" height="20" rx="10" fill="#F1F1F4"/>
<path d="M20.06 13H21.02L21.92 10.93H25.23L26.15 13H27.12L23.97 5.9H23.2L20.06 13ZM23.57 7.16L24.86 10.09H22.29L23.57 7.16ZM28.6977 15.09V12.23C29.0277 12.71 29.6977 13.1 30.4577 13.1C31.8577 13.1 32.9077 11.93 32.9077 10.5C32.9077 9.07 31.8577 7.9 30.4577 7.9C29.6977 7.9 29.0277 8.29 28.6977 8.77V8H27.8377V15.09H28.6977ZM30.3277 12.31C29.3277 12.31 28.6277 11.51 28.6277 10.5C28.6277 9.49 29.3277 8.69 30.3277 8.69C31.3277 8.69 32.0277 9.49 32.0277 10.5C32.0277 11.51 31.3277 12.31 30.3277 12.31ZM34.8563 15.09V12.23C35.1863 12.71 35.8563 13.1 36.6163 13.1C38.0163 13.1 39.0663 11.93 39.0663 10.5C39.0663 9.07 38.0163 7.9 36.6163 7.9C35.8563 7.9 35.1863 8.29 34.8563 8.77V8H33.9963V15.09H34.8563ZM36.4863 12.31C35.4863 12.31 34.7863 11.51 34.7863 10.5C34.7863 9.49 35.4863 8.69 36.4863 8.69C37.4863 8.69 38.1863 9.49 38.1863 10.5C38.1863 11.51 37.4863 12.31 36.4863 12.31ZM40.1549 13H41.0149V10.52C41.0149 9.35 41.7049 8.8 42.3349 8.8C42.5049 8.8 42.6449 8.81 42.8049 8.88V7.99C42.6749 7.96 42.5449 7.95 42.4149 7.95C41.8449 7.95 41.2049 8.33 41.0149 8.97V8H40.1549V13ZM45.7112 13.1C47.2112 13.1 48.3212 11.94 48.3212 10.5C48.3212 9.06 47.2112 7.9 45.7112 7.9C44.1912 7.9 43.0912 9.06 43.0912 10.5C43.0912 11.94 44.1912 13.1 45.7112 13.1ZM45.7112 12.3C44.6712 12.3 43.9712 11.5 43.9712 10.5C43.9712 9.5 44.6712 8.7 45.7112 8.7C46.7512 8.7 47.4412 9.5 47.4412 10.5C47.4412 11.5 46.7512 12.3 45.7112 12.3ZM50.8583 13H51.5783L53.8883 8H52.9283L51.2183 11.79L49.5083 8H48.5483L50.8583 13ZM56.6298 13.1C57.8998 13.1 58.7298 12.36 58.9698 11.48H58.0898C57.7798 12.08 57.2698 12.32 56.6398 12.32C55.7298 12.32 55.0098 11.64 54.9798 10.73H59.0498C59.1598 9.18 58.2298 7.9 56.6498 7.9C55.0798 7.9 54.1098 9.03 54.1098 10.5C54.1098 11.99 55.1698 13.1 56.6298 13.1ZM56.6198 8.66C57.3698 8.66 57.9798 9.12 58.1398 10.05H55.0198C55.1798 9.07 55.9098 8.66 56.6198 8.66ZM62.2009 13.1C62.9609 13.1 63.6309 12.71 63.9609 12.23V13H64.8209V5.5H63.9609V8.77C63.6309 8.29 62.9609 7.9 62.2009 7.9C60.8009 7.9 59.7509 9.07 59.7509 10.5C59.7509 11.93 60.8009 13.1 62.2009 13.1ZM62.3309 12.31C61.3209 12.31 60.6209 11.51 60.6209 10.5C60.6209 9.49 61.3209 8.69 62.3309 8.69C63.3309 8.69 64.0309 9.49 64.0309 10.5C64.0309 11.51 63.3309 12.31 62.3309 12.31Z" fill="#2E2E38"/>
<path fill-rule="evenodd" clip-rule="evenodd" d="M9.91491 12.9866C8.15381 12.9866 6.73408 11.4965 6.85015 9.71076C6.94801 8.2089 8.15277 6.97993 9.65257 6.85455C11.381 6.71034 12.8429 8.00738 12.9741 9.67248V4.85945C11.9189 4.21952 10.6529 3.89221 9.29877 4.03186C6.4585 4.32421 4.20684 6.65407 4.01401 9.50283C3.77981 12.9563 6.51188 15.8301 9.91491 15.8301C11.0361 15.8301 12.0807 15.5126 12.9741 14.9707V10.1577C12.8497 11.7379 11.5266 12.9866 9.91491 12.9866Z" fill="#FF31EC"/>
<path fill-rule="evenodd" clip-rule="evenodd" d="M15.3698 15.8257L12.9741 14.9706V4.85935L15.3741 4.03921C15.5941 3.96411 15.8225 4.12755 15.8225 4.3599V15.5065C15.8225 15.7409 15.5903 15.9045 15.3698 15.8257Z" fill="#00B7FF"/>
<path fill-rule="evenodd" clip-rule="evenodd" d="M12.9741 4.85938V9.67262V10.1576V14.9706C14.6839 13.9339 15.8301 12.0608 15.8301 9.9151C15.8301 7.76937 14.6839 5.89634 12.9741 4.85938Z" fill="#0000FF"/>
</svg>
