<?xml version="1.0" encoding="UTF-8"?>
<svg width="24px" height="24px" viewBox="0 0 24 24" version="1.1" xmlns="http://www.w3.org/2000/svg" xmlns:xlink="http://www.w3.org/1999/xlink">
    <title>adults_only</title>
    <defs>
        <filter color-interpolation-filters="auto" id="filter-1">
            <feColorMatrix in="SourceGraphic" type="matrix" values="0 0 0 0 1.000000 0 0 0 0 0.000000 0 0 0 0 0.420000 0 0 0 1.000000 0"></feColorMatrix>
        </filter>
    </defs>
    <g id="Website" stroke="none" stroke-width="1" fill="none" fill-rule="evenodd">
        <g id="adults_only" transform="translate(-520.000000, -134.000000)" filter="url(#filter-1)">
            <g transform="translate(520.854956, 135.000000)">
                <line x1="19" y1="0" x2="19" y2="6" id="Path" stroke="#000000" stroke-linecap="square"></line>
                <line x1="16" y1="3" x2="22" y2="3" id="Path" stroke="#000000" stroke-linecap="square"></line>
                <path d="M12.616,0.139 C12.0817196,0.0510967486 11.5414436,0.0046249864 11,0 C4.92486775,0 0,4.92486775 0,11 C0,17.0751322 4.92486775,22 11,22 C17.0751322,22 22,17.0751322 22,11 C21.995375,10.4585564 21.9489033,9.9182804 21.861,9.384" id="Path" stroke="#000000" stroke-linecap="square"></path>
                <polygon id="Path" fill="#000000" fill-rule="nonzero" points="6.854 8.823 6.831 8.823 5.343 9.531 5.043 8.164 7.106 7.2 8.617 7.2 8.617 15 6.854 15"></polygon>
                <path d="M11.068,12.961 C11.0681997,12.0796618 11.6264254,11.2950959 12.459,11.006 L12.459,10.97 C11.7839018,10.6716657 11.3439192,10.0079829 11.332,9.27 C11.332,7.951 12.519,7.07 14.078,7.07 C15.901,7.07 16.657,8.126 16.657,9.07 C16.6491194,9.81342823 16.2083514,10.4839582 15.529,10.786 L15.529,10.821 C16.3731709,11.0943782 16.9481432,11.876711 16.957,12.764 C16.957,14.18 15.769,15.1270168 13.957,15.1270168 C11.979,15.132 11.068,14.017 11.068,12.961 Z M15.098,12.901 C15.098,12.218 14.598,11.81 13.875,11.618 C13.3221304,11.7300567 12.9252953,12.2168913 12.927,12.781 C12.9202795,13.0740244 13.0342813,13.3569329 13.2422904,13.5634291 C13.4502994,13.7699253 13.7340325,13.8818591 14.027,13.873 C14.3013966,13.8991587 14.5741231,13.8085504 14.778313,13.6233903 C14.9825029,13.4382303 15.0992752,13.1756397 15.1,12.9 L15.098,12.901 Z M13.047,9.207 C13.047,9.735 13.526,10.071 14.147,10.263 C14.6029393,10.1412546 14.9249275,9.73470392 14.939,9.263 C14.9583157,9.00516538 14.8650574,8.75159538 14.6832875,8.56771635 C14.5015176,8.38383732 14.2490403,8.28765995 13.991,8.304 C13.741798,8.28217935 13.4952797,8.36880883 13.314511,8.54172635 C13.1337423,8.71464386 13.0362591,8.95707517 13.047,9.207 L13.047,9.207 Z" id="Shape" fill="#000000" fill-rule="nonzero"></path>
            </g>
        </g>
    </g>
</svg>