<?xml version="1.0" encoding="UTF-8"?>
<svg width="22px" height="23px" viewBox="0 0 22 23" version="1.1" xmlns="http://www.w3.org/2000/svg" xmlns:xlink="http://www.w3.org/1999/xlink">
    <title>beachfront</title>
    <defs>
        <filter color-interpolation-filters="auto" id="filter-1">
            <feColorMatrix in="SourceGraphic" type="matrix" values="0 0 0 0 1.000000 0 0 0 0 0.000000 0 0 0 0 0.420000 0 0 0 1.000000 0"></feColorMatrix>
        </filter>
    </defs>
    <g id="Website" stroke="none" stroke-width="1" fill="none" fill-rule="evenodd">
        <g id="beachfront" transform="translate(-677.000000, -135.000000)" filter="url(#filter-1)">
            <g transform="translate(677.854956, 135.000000)">
                <line x1="10.5" y1="22.5" x2="10.5" y2="11.5" id="Path" stroke="#000000" stroke-linecap="square"></line>
                <line x1="4.5" y1="22.5" x2="16.5" y2="22.5" id="Path" stroke="#000000" stroke-linecap="square"></line>
                <line x1="10.5" y1="2.5" x2="10.5" y2="0.5" id="Path" stroke="#000000" stroke-linecap="square"></line>
                <path d="M10.5,2.5 C7.539,3.974 5.5,6.968 5.5,10.5 C5.5,10.84 5.5,11.5 5.5,11.5" id="Path" stroke="#000000"></path>
                <path d="M10.5,2.5 C13.461,3.974 15.5,6.968 15.5,10.5 C15.5,10.84 15.5,11.5 15.5,11.5" id="Path" stroke="#000000"></path>
                <path d="M20.5,11.5 C19.998,6.447 15.685,2.5 10.5,2.5 C5.315,2.5 1.002,6.447 0.5,11.5 L20.5,11.5 Z" id="Path" stroke="#000000" stroke-linecap="square"></path>
                <line x1="10.5" y1="11.5" x2="10.5" y2="2.5" id="Path" stroke="#000000"></line>
            </g>
        </g>
    </g>
</svg>