<?xml version="1.0" encoding="UTF-8"?>
<svg width="20px" height="24px" viewBox="0 0 20 24" version="1.1" xmlns="http://www.w3.org/2000/svg" xmlns:xlink="http://www.w3.org/1999/xlink">
    <title>disabled_rooms</title>
    <defs>
        <filter color-interpolation-filters="auto" id="filter-1">
            <feColorMatrix in="SourceGraphic" type="matrix" values="0 0 0 0 1.000000 0 0 0 0 0.000000 0 0 0 0 0.420000 0 0 0 1.000000 0"></feColorMatrix>
        </filter>
    </defs>
    <g id="Website" stroke="none" stroke-width="1" fill="none" fill-rule="evenodd">
        <g id="disabled_rooms" transform="translate(-888.000000, -134.000000)" filter="url(#filter-1)">
            <g transform="translate(888.854767, 135.000000)">
                <circle id="Oval" stroke="#000000" stroke-linecap="square" cx="8" cy="2" r="2"></circle>
                <circle id="Oval" stroke="#000000" cx="17" cy="21" r="1"></circle>
                <path d="M4.763,12.551 C2.56717564,13.657518 1.50440648,16.1984562 2.25854283,18.5388205 C3.01267918,20.8791848 5.35900826,22.3216082 7.78775924,21.9379477 C10.2165102,21.5542873 12.0039792,19.4588637 12.0000066,17" id="Path" stroke="#000000" stroke-linecap="square"></path>
                <path d="M17,17 L17,15 C17,14.4477153 16.5522847,14 16,14 L9.735,14 C8.73971269,14.0000615 7.89583315,13.268273 7.755,12.283 L7,7" id="Path" stroke="#000000"></path>
                <path d="M11.571,11 L11.123,7.859 C11.052809,7.36616493 10.6308084,7 10.133,7 L7.1,7 L6.9,7.019 L2.48,7.9 C2.17684476,7.95996278 1.91844303,8.15671724 1.78,8.433 L0,12" id="Path" stroke="#000000" stroke-linecap="square"></path>
            </g>
        </g>
    </g>
</svg>