<?xml version="1.0" encoding="UTF-8"?>
<svg width="24px" height="22px" viewBox="0 0 24 22" version="1.1" xmlns="http://www.w3.org/2000/svg" xmlns:xlink="http://www.w3.org/1999/xlink">
    <title>pet_friendly</title>
    <defs>
        <filter color-interpolation-filters="auto" id="filter-1">
            <feColorMatrix in="SourceGraphic" type="matrix" values="0 0 0 0 1.000000 0 0 0 0 0.000000 0 0 0 0 0.420000 0 0 0 1.000000 0"></feColorMatrix>
        </filter>
    </defs>
    <g id="Website" stroke="none" stroke-width="1" fill="none" fill-rule="evenodd" stroke-linecap="square">
        <g id="pet_friendly" transform="translate(-361.000000, -134.000000)" filter="url(#filter-1)">
            <g transform="translate(362.000000, 135.000000)">
                <path d="M7.48480115,0.0270967911 C7.01065409,-0.0599692841 6.52216509,0.0650688429 6.14816151,0.369235334 C5.77415793,0.673401825 5.5521917,1.12615677 5.54080115,1.60809679 C5.40499929,2.66021798 6.05475723,3.65478871 7.07280115,3.95309679 C7.5469482,4.04016287 8.03543721,3.91512474 8.40944079,3.61095825 C8.78344437,3.30679176 9.0054106,2.85403681 9.01680115,2.37209679 C9.15260301,1.3199756 8.50284507,0.325404873 7.48480115,0.0270967911 Z" id="Path" stroke="#000000"></path>
                <path d="M1.22280115,5.03509679 C2.25189351,4.87758053 3.22457364,5.55208919 3.43780115,6.57109679 C3.61357629,7.03138036 3.59588458,7.54316358 3.38874417,7.99021024 C3.18160377,8.4372569 2.80259601,8.78162325 2.33780115,8.94509679 C1.30764924,9.10435739 0.333059676,8.42943874 0.119801148,7.40909679 C-0.05583541,6.94842416 -0.0377260155,6.43630512 0.170011478,5.98918925 C0.377748972,5.54207337 0.757459352,5.19796019 1.22280115,5.03509679 L1.22280115,5.03509679 Z" id="Path" stroke="#000000"></path>
                <path d="M14.5728011,0.0270967911 C15.0469482,-0.0599692841 15.5354372,0.0650688429 15.9094408,0.369235334 C16.2834444,0.673401825 16.5054106,1.12615677 16.5168011,1.60809679 C16.652603,2.66021798 16.0028451,3.65478871 14.9848011,3.95309679 C14.5106541,4.04016287 14.0221651,3.91512474 13.6481615,3.61095825 C13.2741579,3.30679176 13.0521917,2.85403681 13.0408011,2.37209679 C12.9049993,1.3199756 13.5547572,0.325404873 14.5728011,0.0270967911 L14.5728011,0.0270967911 Z" id="Path" stroke="#000000"></path>
                <path d="M20.8348011,5.03509679 C19.8057088,4.87758053 18.8330287,5.55208919 18.6198011,6.57109679 C18.444026,7.03138036 18.4617177,7.54316358 18.6688581,7.99021024 C18.8759985,8.4372569 19.2550063,8.78162325 19.7198011,8.94509679 C20.7488935,9.10261305 21.7215736,8.42810439 21.9348011,7.40909679 C22.1105763,6.94881322 22.0928846,6.43703 21.8857442,5.98998334 C21.6786038,5.54293668 21.299596,5.19857034 20.8348011,5.03509679 L20.8348011,5.03509679 Z" id="Path" stroke="#000000"></path>
                <path d="M4.02880115,16.9900968 C4.02880115,18.646951 5.3719469,19.9900968 7.02880115,19.9900968 C9.02880115,19.9900968 9.02880115,18.9900968 11.0288011,18.9900968 C13.0288011,18.9900968 13.0288011,19.9900968 15.0288011,19.9900968 C16.6856554,19.9900968 18.0288011,18.646951 18.0288011,16.9900968 C18.0288011,12.9900968 14.0288011,7.99009679 11.0288011,7.99009679 C8.02880115,7.99009679 4.02880115,12.9900968 4.02880115,16.9900968 Z" id="Path" stroke="#000000"></path>
            </g>
        </g>
    </g>
</svg>